<svg width="21" height="21" viewBox="0 0 21 21" fill="none" xmlns="http://www.w3.org/2000/svg">
    <path
        d="M9.78571 3.35714C9.59627 3.35714 9.41459 3.4324 9.28064 3.56635C9.14668 3.70031 9.07143 3.88199 9.07143 4.07143C9.07143 4.26087 9.14668 4.44255 9.28064 4.5765C9.41459 4.71046 9.59627 4.78571 9.78571 4.78571H11.2143C11.4037 4.78571 11.5854 4.71046 11.7194 4.5765C11.8533 4.44255 11.9286 4.26087 11.9286 4.07143C11.9286 3.88199 11.8533 3.70031 11.7194 3.56635C11.5854 3.4324 11.4037 3.35714 11.2143 3.35714H9.78571ZM8.35714 13.7143C8.35714 13.9984 8.24426 14.271 8.04333 14.4719C7.8424 14.6728 7.56987 14.7857 7.28571 14.7857C7.00155 14.7857 6.72903 14.6728 6.5281 14.4719C6.32717 14.271 6.21429 13.9984 6.21429 13.7143C6.21429 13.4301 6.32717 13.1576 6.5281 12.9567C6.72903 12.7557 7.00155 12.6429 7.28571 12.6429C7.56987 12.6429 7.8424 12.7557 8.04333 12.9567C8.24426 13.1576 8.35714 13.4301 8.35714 13.7143ZM13.7143 14.7857C13.9984 14.7857 14.271 14.6728 14.4719 14.4719C14.6728 14.271 14.7857 13.9984 14.7857 13.7143C14.7857 13.4301 14.6728 13.1576 14.4719 12.9567C14.271 12.7557 13.9984 12.6429 13.7143 12.6429C13.4301 12.6429 13.1576 12.7557 12.9567 12.9567C12.7557 13.1576 12.6429 13.4301 12.6429 13.7143C12.6429 13.9984 12.7557 14.271 12.9567 14.4719C13.1576 14.6728 13.4301 14.7857 13.7143 14.7857ZM1.92857 4.64286C1.92857 3.5441 2.36505 2.49035 3.14199 1.71341C3.91892 0.936478 4.97267 0.5 6.07143 0.5H14.9286C16.0273 0.5 17.0811 0.936478 17.858 1.71341C18.635 2.49035 19.0714 3.5441 19.0714 4.64286V7.64286H19.7857C19.9752 7.64286 20.1568 7.71811 20.2908 7.85207C20.4247 7.98602 20.5 8.1677 20.5 8.35714C20.5 8.54658 20.4247 8.72826 20.2908 8.86222C20.1568 8.99617 19.9752 9.07143 19.7857 9.07143H19.0714V18.6429C19.0714 19.1354 18.8758 19.6078 18.5275 19.9561C18.1792 20.3043 17.7068 20.5 17.2143 20.5H15.2143C14.7217 20.5 14.2494 20.3043 13.9011 19.9561C13.5528 19.6078 13.3571 19.1354 13.3571 18.6429V17.6429H7.64286V18.6429C7.64286 19.1354 7.44719 19.6078 7.09891 19.9561C6.75063 20.3043 6.27826 20.5 5.78571 20.5H3.78571C3.29317 20.5 2.8208 20.3043 2.47252 19.9561C2.12423 19.6078 1.92857 19.1354 1.92857 18.6429V9.07143H1.21429C1.02485 9.07143 0.843164 8.99617 0.709209 8.86222C0.575255 8.72826 0.5 8.54658 0.5 8.35714C0.5 8.1677 0.575255 7.98602 0.709209 7.85207C0.843164 7.71811 1.02485 7.64286 1.21429 7.64286H1.92857V4.64286ZM17.6429 4.64286C17.6429 3.92298 17.3569 3.23259 16.8479 2.72357C16.3388 2.21454 15.6484 1.92857 14.9286 1.92857H6.07143C5.35156 1.92857 4.66117 2.21454 4.15214 2.72357C3.64311 3.23259 3.35714 3.92298 3.35714 4.64286V10.5H17.6429V4.64286ZM14.7857 17.6429V18.6429C14.7857 18.6991 14.7968 18.7549 14.8183 18.8069C14.8399 18.8589 14.8714 18.9061 14.9112 18.9459C14.951 18.9857 14.9983 19.0173 15.0503 19.0388C15.1023 19.0603 15.158 19.0714 15.2143 19.0714H17.2143C17.2706 19.0714 17.3263 19.0603 17.3783 19.0388C17.4303 19.0173 17.4775 18.9857 17.5173 18.9459C17.5571 18.9061 17.5887 18.8589 17.6102 18.8069C17.6318 18.7549 17.6429 18.6991 17.6429 18.6429V17.6429H14.7857ZM3.35714 17.6429V18.6429C3.35714 18.6991 3.36823 18.7549 3.38977 18.8069C3.4113 18.8589 3.44287 18.9061 3.48267 18.9459C3.52247 18.9857 3.56971 19.0173 3.62171 19.0388C3.6737 19.0603 3.72943 19.0714 3.78571 19.0714H5.78571C5.84199 19.0714 5.89773 19.0603 5.94972 19.0388C6.00172 19.0173 6.04896 18.9857 6.08876 18.9459C6.12856 18.9061 6.16012 18.8589 6.18166 18.8069C6.2032 18.7549 6.21429 18.6991 6.21429 18.6429V17.6429H3.35714ZM3.35714 16.2143H17.6429V11.9286H3.35714V16.2143Z"
        fill="#F2A116" />
</svg>