<svg width="19" height="19" viewBox="0 0 19 19" fill="none" xmlns="http://www.w3.org/2000/svg">
    <path
        d="M10.5 5.5V1.5C10.5 1.21667 10.596 0.979333 10.788 0.788C10.98 0.596667 11.2173 0.500667 11.5 0.5H17.5C17.7833 0.5 18.021 0.596 18.213 0.788C18.405 0.98 18.5007 1.21733 18.5 1.5V5.5C18.5 5.78333 18.404 6.021 18.212 6.213C18.02 6.405 17.7827 6.50067 17.5 6.5H11.5C11.2167 6.5 10.9793 6.404 10.788 6.212C10.5967 6.02 10.5007 5.78267 10.5 5.5ZM0.5 9.5V1.5C0.5 1.21667 0.596 0.979333 0.788 0.788C0.98 0.596667 1.21733 0.500667 1.5 0.5H7.5C7.78333 0.5 8.021 0.596 8.213 0.788C8.405 0.98 8.50067 1.21733 8.5 1.5V9.5C8.5 9.78333 8.404 10.021 8.212 10.213C8.02 10.405 7.78267 10.5007 7.5 10.5H1.5C1.21667 10.5 0.979333 10.404 0.788 10.212C0.596667 10.02 0.500667 9.78267 0.5 9.5ZM10.5 17.5V9.5C10.5 9.21667 10.596 8.97933 10.788 8.788C10.98 8.59667 11.2173 8.50067 11.5 8.5H17.5C17.7833 8.5 18.021 8.596 18.213 8.788C18.405 8.98 18.5007 9.21733 18.5 9.5V17.5C18.5 17.7833 18.404 18.021 18.212 18.213C18.02 18.405 17.7827 18.5007 17.5 18.5H11.5C11.2167 18.5 10.9793 18.404 10.788 18.212C10.5967 18.02 10.5007 17.7827 10.5 17.5ZM0.5 17.5V13.5C0.5 13.2167 0.596 12.9793 0.788 12.788C0.98 12.5967 1.21733 12.5007 1.5 12.5H7.5C7.78333 12.5 8.021 12.596 8.213 12.788C8.405 12.98 8.50067 13.2173 8.5 13.5V17.5C8.5 17.7833 8.404 18.021 8.212 18.213C8.02 18.405 7.78267 18.5007 7.5 18.5H1.5C1.21667 18.5 0.979333 18.404 0.788 18.212C0.596667 18.02 0.500667 17.7827 0.5 17.5ZM2.5 8.5H6.5V2.5H2.5V8.5ZM12.5 16.5H16.5V10.5H12.5V16.5ZM12.5 4.5H16.5V2.5H12.5V4.5ZM2.5 16.5H6.5V14.5H2.5V16.5Z"
        fill="#F2A116" />
</svg>