<svg width="22" height="23" viewBox="0 0 22 23" fill="none" xmlns="http://www.w3.org/2000/svg">
    <path
        d="M7.16667 21.5H13.8333M7.16667 21.5V15.9444M7.16667 21.5H1.16667C0.989856 21.5 0.820286 21.4298 0.695262 21.3047C0.570238 21.1797 0.5 21.0101 0.5 20.8333V16.6111C0.5 16.4343 0.570238 16.2647 0.695262 16.1397C0.820286 16.0147 0.989856 15.9444 1.16667 15.9444H7.16667M13.8333 21.5V8.16667M13.8333 21.5H19.8333C20.0101 21.5 20.1797 21.4298 20.3047 21.3047C20.4298 21.1797 20.5 21.0101 20.5 20.8333V2.16667C20.5 1.98986 20.4298 1.82029 20.3047 1.69526C20.1797 1.57024 20.0101 1.5 19.8333 1.5H14.5C14.3232 1.5 14.1536 1.57024 14.0286 1.69526C13.9036 1.82029 13.8333 1.98986 13.8333 2.16667V8.16667M7.16667 15.9444V8.83333C7.16667 8.65652 7.2369 8.48695 7.36193 8.36193C7.48695 8.2369 7.65652 8.16667 7.83333 8.16667H13.8333"
        stroke="#F2A116" stroke-width="1.5" />
</svg>