<svg width="20" height="20" viewBox="0 0 20 20" fill="none" xmlns="http://www.w3.org/2000/svg">
    <path
        d="M11.0784 0C11.3724 0 11.6354 0.183 11.7344 0.457L12.4404 2.414C12.693 2.47667 12.911 2.54067 13.0944 2.606C13.2944 2.67733 13.5544 2.78733 13.8744 2.936L15.5184 2.066C15.6525 1.99458 15.8062 1.96874 15.9563 1.99237C16.1064 2.016 16.2447 2.08783 16.3504 2.197L17.7964 3.692C17.9884 3.891 18.0424 4.182 17.9344 4.436L17.1634 6.243C17.2907 6.47767 17.3934 6.679 17.4714 6.847C17.5554 7.029 17.6594 7.28233 17.7834 7.607L19.5804 8.377C19.8504 8.492 20.0174 8.762 19.9994 9.051L19.8674 11.126C19.8583 11.2608 19.8099 11.39 19.7282 11.4975C19.6464 11.6051 19.5349 11.6863 19.4074 11.731L17.7054 12.336C17.6567 12.5707 17.6054 12.7727 17.5514 12.942C17.464 13.2044 17.3645 13.4627 17.2534 13.716L18.1084 15.606C18.1692 15.7387 18.1857 15.8875 18.1554 16.0303C18.1252 16.1731 18.0498 16.3024 17.9404 16.399L16.3144 17.851C16.2075 17.9466 16.0738 18.0071 15.9315 18.0243C15.7891 18.0414 15.6449 18.0145 15.5184 17.947L13.8424 17.059C13.5804 17.1984 13.3099 17.321 13.0324 17.426L12.3004 17.7L11.6504 19.5C11.6017 19.6315 11.5147 19.7454 11.4006 19.8269C11.2865 19.9084 11.1505 19.9537 11.0104 19.957L9.11037 20C8.96642 20.0033 8.82495 19.9622 8.70523 19.8822C8.58551 19.8022 8.49337 19.6873 8.44137 19.553L7.67537 17.526C7.41408 17.4365 7.15532 17.3398 6.89937 17.236C6.69009 17.1454 6.48397 17.0477 6.28137 16.943L4.38137 17.755C4.25622 17.8087 4.11814 17.8247 3.98404 17.801C3.84994 17.7774 3.72564 17.7152 3.62637 17.622L2.22037 16.303C2.1153 16.2055 2.04373 16.0773 2.0159 15.9366C1.98806 15.796 2.00537 15.6502 2.06537 15.52L2.88237 13.74C2.7741 13.529 2.67337 13.3142 2.58037 13.096C2.47204 12.8288 2.37199 12.5584 2.28037 12.285L0.490367 11.74C0.344868 11.696 0.217962 11.6052 0.129357 11.4817C0.0407526 11.3582 -0.0045913 11.2089 0.000367469 11.057L0.0703675 9.136C0.0755676 9.01072 0.114809 8.88922 0.183876 8.78456C0.252942 8.6799 0.349221 8.59605 0.462367 8.542L2.34037 7.64C2.42703 7.32133 2.5037 7.072 2.57037 6.892C2.66472 6.65025 2.76948 6.41269 2.88437 6.18L2.07037 4.46C2.00812 4.32948 1.98911 4.18252 2.01608 4.04045C2.04306 3.89839 2.11462 3.76862 2.22037 3.67L3.62437 2.344C3.72266 2.25095 3.84581 2.1884 3.97893 2.1639C4.11204 2.13941 4.2494 2.15403 4.37437 2.206L6.27237 2.99C6.4817 2.85067 6.67237 2.736 6.84437 2.646C7.04903 2.538 7.3237 2.42267 7.66837 2.3L8.32837 0.459C8.37766 0.324592 8.46697 0.208527 8.58427 0.126454C8.70156 0.0443815 8.84121 0.000246609 8.98437 0L11.0784 0ZM10.0244 7.019C8.35737 7.019 7.00637 8.354 7.00637 10.002C7.00637 11.65 8.35737 12.986 10.0244 12.986C11.6914 12.986 13.0414 11.65 13.0414 10.002C13.0414 8.354 11.6914 7.019 10.0244 7.019Z"
        fill="#F2A116" />
</svg>