<svg width="21" height="19" viewBox="0 0 21 19" fill="none" xmlns="http://www.w3.org/2000/svg">
    <path
        d="M3.5 18.5C2.66667 18.5 1.95833 18.2083 1.375 17.625C0.791667 17.0417 0.5 16.3333 0.5 15.5C0.5 14.6667 0.791667 13.9583 1.375 13.375C1.95833 12.7917 2.66667 12.5 3.5 12.5H17.5C18.3333 12.5 19.0417 12.7917 19.625 13.375C20.2083 13.9583 20.5 14.6667 20.5 15.5C20.5 16.3333 20.2083 17.0417 19.625 17.625C19.0417 18.2083 18.3333 18.5 17.5 18.5H3.5ZM3.5 16.5H17.5C17.7833 16.5 18.021 16.404 18.213 16.212C18.405 16.02 18.5007 15.7827 18.5 15.5C18.4993 15.2173 18.4033 14.98 18.212 14.788C18.0207 14.596 17.7833 14.5 17.5 14.5H3.5C3.21667 14.5 2.97933 14.596 2.788 14.788C2.59667 14.98 2.50067 15.2173 2.5 15.5C2.49933 15.7827 2.59533 16.0203 2.788 16.213C2.98067 16.4057 3.218 16.5013 3.5 16.5ZM8.5 10.5C8.21667 10.5 7.97933 10.404 7.788 10.212C7.59667 10.02 7.50067 9.78267 7.5 9.5V1.5C7.5 1.21667 7.596 0.979333 7.788 0.788C7.98 0.596667 8.21733 0.500667 8.5 0.5H16.5C16.7833 0.5 17.021 0.596 17.213 0.788C17.405 0.98 17.5007 1.21733 17.5 1.5V9.5C17.5 9.78333 17.404 10.021 17.212 10.213C17.02 10.405 16.7827 10.5007 16.5 10.5H8.5ZM9.5 8.5H15.5V2.5H9.5V8.5ZM0.5 8.45V6.525H5.425V8.45H0.5ZM10.5 5.5H14.5V3.525H10.5V5.5ZM2.5 5.5H5.425V3.525H2.5V5.5Z"
        fill="#F2A116" />
</svg>