<svg width="50" height="51" viewBox="0 0 50 51" fill="none" xmlns="http://www.w3.org/2000/svg">
<path d="M25 0.5C27.2949 0.5 29.5085 0.792969 31.6406 1.37891C33.7728 1.96484 35.7585 2.8112 37.5977 3.91797C39.4368 5.02474 41.1214 6.32682 42.6514 7.82422C44.1813 9.32161 45.4915 11.0062 46.582 12.8779C47.6725 14.7497 48.5107 16.7435 49.0967 18.8594C49.6826 20.9753 49.9837 23.1888 50 25.5C50 27.7949 49.707 30.0085 49.1211 32.1406C48.5352 34.2728 47.6888 36.2585 46.582 38.0977C45.4753 39.9368 44.1732 41.6214 42.6758 43.1514C41.1784 44.6813 39.4938 45.9915 37.6221 47.082C35.7503 48.1725 33.7565 49.0107 31.6406 49.5967C29.5247 50.1826 27.3112 50.4837 25 50.5C22.7051 50.5 20.4915 50.207 18.3594 49.6211C16.2272 49.0352 14.2415 48.1888 12.4023 47.082C10.5632 45.9753 8.87858 44.6732 7.34863 43.1758C5.81869 41.6784 4.50846 39.9938 3.41797 38.1221C2.32747 36.2503 1.48926 34.2565 0.90332 32.1406C0.317383 30.0247 0.016276 27.8112 0 25.5C0 23.2051 0.292969 20.9915 0.878906 18.8594C1.46484 16.7272 2.3112 14.7415 3.41797 12.9023C4.52474 11.0632 5.82682 9.37858 7.32422 7.84863C8.82161 6.31869 10.5062 5.00846 12.3779 3.91797C14.2497 2.82747 16.2435 1.98926 18.3594 1.40332C20.4753 0.817383 22.6888 0.516276 25 0.5ZM39.7217 17.2236L36.4014 13.9033L20.3125 29.9922L13.5986 23.2783L10.2783 26.5986L20.3125 36.6328L39.7217 17.2236Z" fill="#485696"/>
</svg>
