<svg width="50" height="51" viewBox="0 0 50 51" fill="none" xmlns="http://www.w3.org/2000/svg">
<path d="M23.2143 7.64286C22.7407 7.64286 22.2865 7.83099 21.9516 8.16588C21.6167 8.50077 21.4286 8.95497 21.4286 9.42857C21.4286 9.90217 21.6167 10.3564 21.9516 10.6913C22.2865 11.0261 22.7407 11.2143 23.2143 11.2143H26.7857C27.2593 11.2143 27.7135 11.0261 28.0484 10.6913C28.3833 10.3564 28.5714 9.90217 28.5714 9.42857C28.5714 8.95497 28.3833 8.50077 28.0484 8.16588C27.7135 7.83099 27.2593 7.64286 26.7857 7.64286H23.2143ZM19.6429 33.5357C19.6429 34.2461 19.3607 34.9274 18.8583 35.4297C18.356 35.9321 17.6747 36.2143 16.9643 36.2143C16.2539 36.2143 15.5726 35.9321 15.0702 35.4297C14.5679 34.9274 14.2857 34.2461 14.2857 33.5357C14.2857 32.8253 14.5679 32.144 15.0702 31.6417C15.5726 31.1393 16.2539 30.8571 16.9643 30.8571C17.6747 30.8571 18.356 31.1393 18.8583 31.6417C19.3607 32.144 19.6429 32.8253 19.6429 33.5357ZM33.0357 36.2143C33.7461 36.2143 34.4274 35.9321 34.9297 35.4297C35.4321 34.9274 35.7143 34.2461 35.7143 33.5357C35.7143 32.8253 35.4321 32.144 34.9297 31.6417C34.4274 31.1393 33.7461 30.8571 33.0357 30.8571C32.3253 30.8571 31.644 31.1393 31.1417 31.6417C30.6393 32.144 30.3571 32.8253 30.3571 33.5357C30.3571 34.2461 30.6393 34.9274 31.1417 35.4297C31.644 35.9321 32.3253 36.2143 33.0357 36.2143ZM3.57143 10.8571C3.57143 8.11026 4.66262 5.47588 6.60497 3.53354C8.54731 1.5912 11.1817 0.5 13.9286 0.5H36.0714C38.8183 0.5 41.4527 1.5912 43.395 3.53354C45.3374 5.47588 46.4286 8.11026 46.4286 10.8571V18.3571H48.2143C48.6879 18.3571 49.1421 18.5453 49.477 18.8802C49.8119 19.2151 50 19.6693 50 20.1429C50 20.6165 49.8119 21.0707 49.477 21.4055C49.1421 21.7404 48.6879 21.9286 48.2143 21.9286H46.4286V45.8571C46.4286 47.0885 45.9394 48.2694 45.0687 49.1401C44.198 50.0108 43.0171 50.5 41.7857 50.5H36.7857C35.5544 50.5 34.3734 50.0108 33.5027 49.1401C32.632 48.2694 32.1429 47.0885 32.1429 45.8571V43.3571H17.8571V45.8571C17.8571 47.0885 17.368 48.2694 16.4973 49.1401C15.6266 50.0108 14.4456 50.5 13.2143 50.5H8.21429C6.98292 50.5 5.80199 50.0108 4.93129 49.1401C4.06059 48.2694 3.57143 47.0885 3.57143 45.8571V21.9286H1.78571C1.31211 21.9286 0.85791 21.7404 0.523023 21.4055C0.188137 21.0707 0 20.6165 0 20.1429C0 19.6693 0.188137 19.2151 0.523023 18.8802C0.85791 18.5453 1.31211 18.3571 1.78571 18.3571H3.57143V10.8571ZM42.8571 10.8571C42.8571 9.05746 42.1422 7.33149 40.8697 6.05892C39.5971 4.78635 37.8711 4.07143 36.0714 4.07143H13.9286C12.1289 4.07143 10.4029 4.78635 9.13035 6.05892C7.85778 7.33149 7.14286 9.05746 7.14286 10.8571V25.5H42.8571V10.8571ZM35.7143 43.3571V45.8571C35.7143 45.9978 35.742 46.1372 35.7958 46.2672C35.8497 46.3972 35.9286 46.5153 36.0281 46.6148C36.1276 46.7142 36.2457 46.7932 36.3757 46.847C36.5057 46.9009 36.645 46.9286 36.7857 46.9286H41.7857C41.9264 46.9286 42.0657 46.9009 42.1957 46.847C42.3257 46.7932 42.4438 46.7142 42.5433 46.6148C42.6428 46.5153 42.7217 46.3972 42.7756 46.2672C42.8294 46.1372 42.8571 45.9978 42.8571 45.8571V43.3571H35.7143ZM7.14286 43.3571V45.8571C7.14286 45.9978 7.17057 46.1372 7.22441 46.2672C7.27826 46.3972 7.35718 46.5153 7.45667 46.6148C7.55616 46.7142 7.67428 46.7932 7.80427 46.847C7.93426 46.9009 8.07358 46.9286 8.21429 46.9286H13.2143C13.355 46.9286 13.4943 46.9009 13.6243 46.847C13.7543 46.7932 13.8724 46.7142 13.9719 46.6148C14.0714 46.5153 14.1503 46.3972 14.2042 46.2672C14.258 46.1372 14.2857 45.9978 14.2857 45.8571V43.3571H7.14286ZM7.14286 39.7857H42.8571V29.0714H7.14286V39.7857Z" fill="#485696"/>
</svg>
