<svg width="80" height="81" viewBox="0 0 80 81" fill="none" xmlns="http://www.w3.org/2000/svg">
    <rect y="0.5" width="80" height="80" rx="40" fill="#F2F2F2" />
    <path fill-rule="evenodd" clip-rule="evenodd"
        d="M30.9334 15.5C39.7331 15.5 46.8667 22.6337 46.8667 31.4334C46.8667 33.043 46.628 34.5969 46.1841 36.0616L62.8001 52.6779C65.7333 55.6111 65.7333 60.3668 62.8001 63.3001C59.8668 66.2333 55.111 66.2333 52.1779 63.3001L35.5616 46.6841C34.0969 47.128 32.543 47.3667 30.9334 47.3667C22.1337 47.3667 15 40.2331 15 31.4334C15 29.7352 15.2656 28.0991 15.7577 26.5643L23.2947 34.0889L30.7652 31.6009L31.0988 31.2673L33.5889 23.8038L26.0432 16.2647C27.584 15.7683 29.2274 15.5 30.9334 15.5Z"
        fill="#485696" />
</svg>